<svg width="115" height="40" viewBox="0 0 115 40" fill="none" xmlns="http://www.w3.org/2000/svg">
<g clip-path="url(#clip0_212_303)">
<path d="M32.569 32.6316C33.2112 32.6316 33.7428 32.849 34.1691 33.2787C34.606 33.7083 34.8166 34.244 34.8166 34.8805C34.8166 35.5169 34.606 36.042 34.1691 36.4822C33.7428 36.9119 33.2112 37.1293 32.569 37.1293H31.1847V39.4737H30.0688V32.6369H32.569V32.6316ZM32.569 36.0685C33.227 36.0685 33.7007 35.57 33.7007 34.8752C33.7007 34.1803 33.227 33.6818 32.569 33.6818H31.1847V36.0632H32.569V36.0685Z" fill="#103559"/>
<path d="M36.4959 37.5163C36.6572 38.2014 37.286 38.5782 38.1374 38.5782C38.7217 38.5782 39.1613 38.3873 39.4618 38.0203L40.3744 38.4901C39.8736 39.1458 39.1223 39.4737 38.1319 39.4737C37.3027 39.4737 36.6239 39.2486 36.1119 38.8082C35.6 38.358 35.344 37.7903 35.344 37.1053C35.344 36.4202 35.6 35.8721 36.1008 35.4219C36.6016 34.9619 37.2582 34.7368 38.0484 34.7368C38.794 34.7368 39.4117 34.9717 39.8903 35.4317C40.3744 35.8917 40.6192 36.4593 40.6192 37.115C40.6192 37.2129 40.6081 37.3499 40.5803 37.5212H36.5014L36.4959 37.5163ZM39.5007 36.7236C39.3449 35.9944 38.7607 35.6128 38.0373 35.6128C37.2193 35.6128 36.6461 36.0385 36.4903 36.7236H39.5007Z" fill="#103559"/>
<path d="M43.7845 35.5461H42.5737V37.897C42.5737 38.5247 42.9826 38.514 43.7845 38.4768V39.4289C42.1701 39.6257 41.5169 39.1842 41.5169 37.9024V35.5514H40.6194V34.5302H41.5169V33.4717L42.5737 33.1579V34.5302H43.7845V35.5514V35.5461Z" fill="#103559"/>
<path d="M46.3868 36.6815C47.1001 36.8334 48.0244 37.1224 48.0044 38.0874C48.0044 38.5185 47.8285 38.8614 47.4869 39.1063C47.1453 39.3512 46.7183 39.4737 46.2009 39.4737C45.2866 39.4737 44.6084 39.0769 44.312 38.4205L45.171 37.9355C45.3268 38.3666 45.6684 38.587 46.1959 38.587C46.7233 38.587 46.9846 38.4156 46.9846 38.0825C46.9846 37.7935 46.5977 37.622 46.1054 37.5045C45.4122 37.333 44.4778 37.0636 44.4979 36.1133C44.4979 35.6969 44.6536 35.3638 44.9801 35.114C45.3017 34.8593 45.7136 34.7368 46.1908 34.7368C46.9594 34.7368 47.5773 35.0895 47.9039 35.6773L47.0599 36.1378C46.9042 35.7949 46.6078 35.6235 46.1908 35.6235C45.8141 35.6235 45.5177 35.7851 45.5177 36.1035C45.5177 36.4023 45.9045 36.5542 46.3868 36.6913V36.6815Z" fill="#103559"/>
<path d="M54.3348 33.6377C53.5037 33.57 53.0995 33.8876 53.0995 34.5852V34.6789H54.3348V35.6784H53.0995V39.4737H51.9667V35.6784H51.1697V34.6789H51.9667V34.5852C51.9667 33.2732 52.7864 32.5548 54.3348 32.6381V33.6377Z" fill="#103559"/>
<path d="M55.633 38.7886C55.1228 38.3286 54.8623 37.7708 54.8623 37.1053C54.8623 36.4397 55.1228 35.8819 55.633 35.4219C56.1431 34.9619 56.7727 34.7368 57.4999 34.7368C58.2272 34.7368 58.8567 34.9619 59.3669 35.4219C59.877 35.8819 60.1375 36.4397 60.1375 37.1053C60.1375 37.7708 59.877 38.3286 59.3669 38.7886C58.8567 39.2486 58.238 39.4737 57.4999 39.4737C56.7618 39.4737 56.1431 39.2486 55.633 38.7886ZM57.4999 38.5292C57.9395 38.5292 58.3086 38.3922 58.6071 38.1231C58.9056 37.8539 59.0575 37.5114 59.0575 37.1053C59.0575 36.6991 58.9056 36.3566 58.6071 36.0874C58.3086 35.8183 57.9395 35.6813 57.4999 35.6813C57.0603 35.6813 56.6913 35.8183 56.3928 36.0874C56.0943 36.3566 55.9423 36.6991 55.9423 37.1053C55.9423 37.5114 56.0943 37.8539 56.3928 38.1231C56.6913 38.3922 57.0603 38.5292 57.4999 38.5292Z" fill="#103559"/>
<path d="M61.752 35.6013C62.025 35.025 62.5493 34.7368 63.3029 34.7368V35.8237C62.8933 35.7934 62.5275 35.8894 62.2162 36.1018C61.9049 36.309 61.752 36.6528 61.752 37.128V39.4737H60.6653V34.8177H61.752V35.6013V35.6013Z" fill="#103559"/>
<path d="M71.2157 37.5203C71.2157 38.0777 71.0286 38.5448 70.6494 38.9163C70.2702 39.2879 69.8101 39.4737 69.2641 39.4737H66.468V32.6316H69.0568C69.5876 32.6316 70.0427 32.8174 70.4067 33.1783C70.7809 33.5393 70.9629 33.9904 70.9629 34.5266C70.9629 35.1211 70.7404 35.5829 70.3006 35.9226C70.8669 36.2358 71.2107 36.8037 71.2107 37.515L71.2157 37.5203ZM67.5399 33.6879V35.4873H69.0568C69.532 35.4873 69.8961 35.0945 69.8961 34.5903C69.8961 34.086 69.532 33.6932 69.0568 33.6932H67.5399V33.6879ZM69.2641 38.4174C69.7596 38.4174 70.1489 37.998 70.1489 37.4619C70.1489 36.9258 69.7596 36.5065 69.2641 36.5065H67.5399V38.4227H69.2641V38.4174Z" fill="#103559"/>
<path d="M73.4214 37.5163C73.5826 38.2014 74.2107 38.5782 75.0612 38.5782C75.6449 38.5782 76.084 38.3873 76.3842 38.0203L77.2958 38.4901C76.7956 39.1458 76.0451 39.4737 75.0557 39.4737C74.2274 39.4737 73.5493 39.2486 73.0379 38.8082C72.5264 38.358 72.2708 37.7903 72.2708 37.1053C72.2708 36.4202 72.5265 35.8721 73.0267 35.4219C73.527 34.9619 74.183 34.7368 74.9723 34.7368C75.7172 34.7368 76.3342 34.9717 76.8178 35.4317C77.3014 35.8917 77.546 36.4593 77.546 37.115C77.546 37.2129 77.5349 37.3499 77.5071 37.5212H73.4325L73.4214 37.5163ZM76.4231 36.7236C76.2675 35.9944 75.6838 35.6128 74.9612 35.6128C74.144 35.6128 73.5715 36.0385 73.4158 36.7236H76.4287H76.4231Z" fill="#103559"/>
<path d="M79.6206 36.6815C80.334 36.8334 81.2583 37.1224 81.2382 38.0874C81.2382 38.5185 81.0624 38.8614 80.7208 39.1063C80.3792 39.3512 79.9522 39.4737 79.4348 39.4737C78.5205 39.4737 77.8423 39.0769 77.5459 38.4205L78.4049 37.9355C78.5607 38.3666 78.9023 38.587 79.4297 38.587C79.9572 38.587 80.2184 38.4156 80.2184 38.0825C80.2184 37.7935 79.8316 37.622 79.3393 37.5045C78.6461 37.333 77.7117 37.0636 77.7318 36.1133C77.7318 35.6969 77.8875 35.3638 78.214 35.114C78.5355 34.8593 78.9475 34.7368 79.4247 34.7368C80.1933 34.7368 80.8112 35.0895 81.1378 35.6773L80.2938 36.1378C80.1381 35.7949 79.8417 35.6235 79.4247 35.6235C79.0479 35.6235 78.7516 35.7851 78.7516 36.1035C78.7516 36.4023 79.1384 36.5542 79.6206 36.6913V36.6815Z" fill="#103559"/>
<path d="M84.9313 35.5461H83.7225V37.897C83.7225 38.5247 84.1307 38.514 84.9313 38.4768V39.4289C83.3195 39.6257 82.6674 39.1842 82.6674 37.9024V35.5514H81.7661V34.5302H82.6674V33.4717L83.7225 33.1579V34.5302H84.9313V35.5514V35.5461Z" fill="#103559"/>
<path d="M24.9886 3.21457C24.8505 1.85331 24.3036 1.57895 23.2416 1.57895H18.7175C17.7246 1.57895 17.4856 1.74779 17.1086 2.83996L13.7156 13.8725L10.3226 2.83996C9.94555 1.74779 9.7066 1.57895 8.71364 1.57895H4.18428C3.12229 1.57895 2.57537 1.85331 2.43731 3.21457L0.0372224 24.8733C-0.0636662 25.6542 0.00536287 25.9655 0.690344 26.0657L5.86752 26.815C6.65339 26.9152 6.82862 26.7464 6.92951 26.166L8.06052 16.0199L10.4925 25.5223C10.7314 26.3032 11.0394 26.6145 11.8306 26.6145H15.6006C16.3865 26.6145 16.6998 26.3084 16.9387 25.5223L19.3388 16.0199L20.5017 26.166C20.6026 26.7464 20.7778 26.9152 21.5637 26.815L26.7408 26.0657C27.4258 25.9655 27.4949 25.6595 27.394 24.8733L24.9886 3.21457Z" fill="#103559"/>
<path d="M37.4542 7.36842C31.644 7.36842 28.4863 11.3508 28.4863 16.8421C28.4863 22.3334 31.644 26.3158 37.4542 26.3158C43.2644 26.3158 46.4221 22.3334 46.4221 16.8421C46.4221 11.3508 43.2644 7.36842 37.4542 7.36842ZM37.4542 20.1193C36.0596 20.1193 35.3122 18.8126 35.3122 16.8369C35.3122 14.8613 36.0596 13.5546 37.4542 13.5546C38.8489 13.5546 39.5962 14.8613 39.5962 16.8369C39.5962 18.8126 38.8489 20.1193 37.4542 20.1193Z" fill="#103559"/>
<path d="M59.452 7.37894C58.2609 7.37894 49.3491 7.61559 48.7694 8.4307C48.5322 8.70415 48.5322 9.07753 48.5322 9.7191L48.8063 24.5173C48.8379 25.8741 49.1488 26.3158 50.3346 26.3158H54.4875C55.6785 26.3158 56.0158 25.8741 56.0158 24.5173V14.2995C56.527 14.1312 56.6957 14.0628 57.2754 14.026C58.0554 13.9945 58.4296 14.2311 58.672 14.8727C58.8406 15.5511 58.8775 16.5713 58.8775 17.9596L58.8459 24.512C58.8459 25.8688 59.2201 26.3105 60.4111 26.3105H64.6641C65.8552 26.3105 66.1609 25.8688 66.1925 24.512L66.4665 15.4827C66.4982 13.274 66.0238 11.2389 64.9013 9.74539C63.7102 8.2519 61.9395 7.36842 59.4572 7.36842L59.452 7.37894Z" fill="#103559"/>
<path d="M75.414 9.47368H71.1391C69.9695 9.47368 69.6331 9.87705 69.6331 11.2338V24.5242C69.6331 25.8757 69.9695 26.3158 71.1391 26.3158H75.4813C76.6509 26.3158 77.0184 25.8757 77.0184 24.5242L76.9511 11.2338C76.9511 9.91372 76.5836 9.47368 75.414 9.47368V9.47368Z" fill="#103559"/>
<path d="M73.5895 0.526321C71.0576 0.526321 69.6331 2.08542 69.6331 4.21053C69.6331 6.33564 71.0576 7.89474 73.5895 7.89474C76.1214 7.89474 77.5459 6.33564 77.5459 4.21053C77.5459 2.08542 76.1214 0.526321 73.5895 0.526321V0.526321Z" fill="#103559"/>
<path d="M91.9469 7.91969H89.3173V3.34406C89.3173 1.98871 88.9692 1.57895 87.7642 1.57895H83.6833C82.4729 1.57895 82.0927 2.02023 82.0927 3.34406V7.91969H80.0201C78.8793 7.91969 78.6008 8.12457 78.6008 9.17523V12.8736C78.6008 13.9242 78.8793 14.1291 80.0201 14.1291H82.0927V20.5697C82.0927 24.9089 84.4063 26.8421 88.7657 26.8421C90.0457 26.8421 91.3256 26.7423 92.536 26.5006C93.0555 26.4008 93.1947 26.2642 93.1947 25.7547L93.0234 20.5644C93.0234 20.1231 92.7824 19.955 92.3325 20.0548C91.9522 20.1546 91.572 20.2229 91.0525 20.2229C90.051 20.2229 89.3227 19.8815 89.3227 18.4263V14.1186H91.9522C93.093 14.1186 93.3715 13.9137 93.3715 12.8631V9.16473C93.3715 8.11406 93.093 7.90918 91.9522 7.90918L91.9469 7.91969Z" fill="#103559"/>
<path d="M103.394 7.36842C97.5842 7.36842 94.4265 11.3508 94.4265 16.8421C94.4265 22.3334 97.5842 26.3158 103.394 26.3158C109.205 26.3158 112.362 22.3334 112.362 16.8421C112.362 11.3508 109.205 7.36842 103.394 7.36842ZM103.394 20.1193C102 20.1193 101.252 18.8126 101.252 16.8369C101.252 14.8613 102 13.5546 103.394 13.5546C104.789 13.5546 105.536 14.8613 105.536 16.8369C105.536 18.8126 104.789 20.1193 103.394 20.1193Z" fill="#103559"/>
<path d="M114.03 8.11044C113.421 7.67069 112.422 7.92477 111.792 8.67724C111.161 9.4297 111.145 10.3972 111.75 10.8369C112.359 11.2767 113.358 11.0226 113.988 10.2701C114.619 9.51765 114.634 8.5502 114.03 8.11044V8.11044Z" fill="#103559"/>
<path d="M99.685 6.83118C100.401 6.72115 100.871 5.81473 100.733 4.80352C100.594 3.79232 99.9074 3.0588 99.1909 3.16882C98.4744 3.27885 98.005 4.18527 98.1433 5.19648C98.2817 6.20769 98.9685 6.94121 99.685 6.83118Z" fill="#103559"/>
<path d="M108.969 7.76093C109.96 8.26132 111.461 7.31493 112.315 5.64516C113.169 3.97538 113.06 2.21314 112.063 1.71276C111.072 1.21237 109.571 2.15875 108.717 3.82853C107.863 5.4983 107.972 7.26054 108.969 7.76093Z" fill="#103559"/>
<path d="M103.837 6.30726C104.836 6.4344 105.805 5.12591 105.998 3.38834C106.191 1.64546 105.538 0.135674 104.534 0.0085342C103.535 -0.118606 102.566 1.18988 102.373 2.92745C102.18 4.67033 102.833 6.18012 103.837 6.30726Z" fill="#103559"/>
</g>
<defs>
<clipPath id="clip0_212_303">
<rect width="115" height="40" fill="white"/>
</clipPath>
</defs>
</svg>
