<svg width="168" height="48" viewBox="0 0 168 48" fill="none" xmlns="http://www.w3.org/2000/svg">
<path d="M38.784 20.88L34.608 32H32.496L28.304 20.88H30.256L33.552 30.128L36.864 20.88H38.784ZM41.2374 22.016C40.9067 22.016 40.6294 21.904 40.4054 21.68C40.1814 21.456 40.0694 21.1787 40.0694 20.848C40.0694 20.5173 40.1814 20.24 40.4054 20.016C40.6294 19.792 40.9067 19.68 41.2374 19.68C41.5574 19.68 41.8294 19.792 42.0534 20.016C42.2774 20.24 42.3894 20.5173 42.3894 20.848C42.3894 21.1787 42.2774 21.456 42.0534 21.68C41.8294 21.904 41.5574 22.016 41.2374 22.016ZM42.1334 23.184V32H40.3094V23.184H42.1334ZM52.6081 27.376C52.6081 27.7067 52.5868 28.0053 52.5441 28.272H45.8081C45.8615 28.976 46.1228 29.5413 46.5921 29.968C47.0615 30.3947 47.6375 30.608 48.3201 30.608C49.3015 30.608 49.9948 30.1973 50.4001 29.376H52.3681C52.1015 30.1867 51.6161 30.8533 50.9121 31.376C50.2188 31.888 49.3548 32.144 48.3201 32.144C47.4775 32.144 46.7201 31.9573 46.0481 31.584C45.3868 31.2 44.8641 30.6667 44.4801 29.984C44.1068 29.2907 43.9201 28.4907 43.9201 27.584C43.9201 26.6773 44.1015 25.8827 44.4641 25.2C44.8375 24.5067 45.3548 23.9733 46.0161 23.6C46.6881 23.2267 47.4561 23.04 48.3201 23.04C49.1521 23.04 49.8935 23.2213 50.5441 23.584C51.1948 23.9467 51.7015 24.4587 52.0641 25.12C52.4268 25.7707 52.6081 26.5227 52.6081 27.376ZM50.7041 26.8C50.6935 26.128 50.4535 25.5893 49.9841 25.184C49.5148 24.7787 48.9335 24.576 48.2401 24.576C47.6108 24.576 47.0721 24.7787 46.6241 25.184C46.1761 25.5787 45.9095 26.1173 45.8241 26.8H50.7041ZM66.2431 23.184L63.5071 32H61.5871L59.8111 25.488L58.0351 32H56.1151L53.3631 23.184H55.2191L57.0591 30.272L58.9311 23.184H60.8351L62.6271 30.24L64.4511 23.184H66.2431ZM73.5865 20.88V32H71.7625V20.88H73.5865ZM80.4293 23.04C81.1226 23.04 81.7413 23.184 82.2853 23.472C82.8399 23.76 83.2719 24.1867 83.5813 24.752C83.8906 25.3173 84.0453 26 84.0453 26.8V32H82.2373V27.072C82.2373 26.2827 82.0399 25.68 81.6453 25.264C81.2506 24.8373 80.7119 24.624 80.0293 24.624C79.3466 24.624 78.8026 24.8373 78.3973 25.264C78.0026 25.68 77.8053 26.2827 77.8053 27.072V32H75.9813V23.184H77.8053V24.192C78.1039 23.8293 78.4826 23.5467 78.9413 23.344C79.4106 23.1413 79.9066 23.04 80.4293 23.04ZM88.4999 24.672V29.552C88.4999 29.8827 88.5745 30.1227 88.7239 30.272C88.8839 30.4107 89.1505 30.48 89.5239 30.48H90.6439V32H89.2039C88.3825 32 87.7532 31.808 87.3159 31.424C86.8785 31.04 86.6599 30.416 86.6599 29.552V24.672H85.6199V23.184H86.6599V20.992H88.4999V23.184H90.6439V24.672H88.4999ZM94.149 24.464C94.4157 24.016 94.7677 23.6693 95.205 23.424C95.653 23.168 96.181 23.04 96.789 23.04V24.928H96.325C95.6103 24.928 95.0663 25.1093 94.693 25.472C94.3303 25.8347 94.149 26.464 94.149 27.36V32H92.325V23.184H94.149V24.464ZM102.29 32.144C101.458 32.144 100.706 31.9573 100.034 31.584C99.3616 31.2 98.8336 30.6667 98.4496 29.984C98.0656 29.2907 97.8736 28.4907 97.8736 27.584C97.8736 26.688 98.071 25.8933 98.4656 25.2C98.8603 24.5067 99.399 23.9733 100.082 23.6C100.764 23.2267 101.527 23.04 102.37 23.04C103.212 23.04 103.975 23.2267 104.658 23.6C105.34 23.9733 105.879 24.5067 106.274 25.2C106.668 25.8933 106.866 26.688 106.866 27.584C106.866 28.48 106.663 29.2747 106.258 29.968C105.852 30.6613 105.298 31.2 104.594 31.584C103.9 31.9573 103.132 32.144 102.29 32.144ZM102.29 30.56C102.759 30.56 103.196 30.448 103.602 30.224C104.018 30 104.354 29.664 104.61 29.216C104.866 28.768 104.994 28.224 104.994 27.584C104.994 26.944 104.871 26.4053 104.626 25.968C104.38 25.52 104.055 25.184 103.65 24.96C103.244 24.736 102.807 24.624 102.338 24.624C101.868 24.624 101.431 24.736 101.026 24.96C100.631 25.184 100.316 25.52 100.082 25.968C99.847 26.4053 99.7296 26.944 99.7296 27.584C99.7296 28.5333 99.9696 29.2693 100.45 29.792C100.94 30.304 101.554 30.56 102.29 30.56Z" fill="#003459"/>
<path d="M126 23V29L131 26L126 23Z" fill="#003459" stroke="#003459" stroke-width="1.5" stroke-linecap="round" stroke-linejoin="round"/>
<rect x="0.75" y="0.75" width="166.5" height="46.5" rx="23.25" stroke="#003459" stroke-width="1.5"/>
</svg>
